<?xml version="1.0" standalone="no"?>
<!DOCTYPE svg PUBLIC "-//W3C//DTD SVG 20010904//EN"
 "http://www.w3.org/TR/2001/REC-SVG-20010904/DTD/svg10.dtd">
<svg version="1.0" xmlns="http://www.w3.org/2000/svg"
 width="128.000000pt" height="128.000000pt" viewBox="0 0 128.000000 128.000000"
 preserveAspectRatio="xMidYMid meet">
<metadata>
Created by potrace 1.14, written by Peter Selinger 2001-2017
</metadata>
<g transform="translate(0.000000,128.000000) scale(0.100000,-0.100000)"
fill="#000000" stroke="none">
<path d="M232 1105 c-15 -22 -30 -42 -33 -45 -17 -14 -28 -49 -18 -55 11 -8
35 14 64 59 l19 28 18 -24 c10 -12 44 -61 76 -108 l59 -85 -136 2 c-179 2
-163 -1 -149 25 7 12 21 31 31 42 9 11 17 26 17 33 0 23 -29 14 -47 -14 -10
-16 -20 -30 -23 -33 -3 -3 -16 -20 -29 -37 -26 -38 -25 -41 37 -109 11 -12 24
-29 28 -37 5 -8 24 -32 41 -53 18 -22 82 -102 144 -179 61 -77 121 -153 135
-169 13 -16 34 -43 46 -59 13 -17 33 -41 44 -54 12 -13 32 -39 45 -58 13 -19
31 -35 39 -34 8 0 38 30 65 66 28 36 55 70 60 77 10 10 428 537 447 563 6 7
-21 53 -76 133 -48 67 -86 125 -86 129 0 29 -35 33 -273 33 -309 0 -299 1
-295 -14 3 -8 29 -15 62 -18 l57 -5 -74 -108 -75 -108 -35 53 c-19 29 -51 75
-71 103 -20 27 -36 53 -36 57 0 5 16 8 35 8 44 0 51 29 8 31 -98 4 -92 6 -121
-36z m738 -1 c0 -3 -32 -53 -72 -110 l-71 -104 -22 32 c-13 18 -39 56 -59 83
-20 28 -43 62 -51 78 l-16 27 146 0 c80 0 145 -3 145 -6z m-263 -107 c26 -40
56 -82 67 -94 11 -13 18 -24 15 -24 -21 -6 -289 -2 -289 4 0 4 30 52 68 106
48 71 70 96 79 89 7 -5 33 -42 60 -81z m398 -34 c30 -45 55 -84 55 -86 0 -2
-67 -4 -149 -3 l-150 0 46 66 c26 36 60 84 77 108 l30 43 18 -23 c10 -13 43
-60 73 -105z m-651 -176 c9 -29 19 -66 22 -82 7 -37 12 -45 30 -45 10 0 13 7
10 23 -9 48 -29 123 -38 140 -8 16 2 17 157 17 91 0 165 -3 165 -7 0 -20 -155
-593 -161 -593 -3 0 -21 61 -40 136 -38 153 -43 164 -60 147 -9 -9 -3 -44 24
-149 39 -151 41 -148 -33 -54 -14 17 -32 40 -40 50 -8 10 -44 55 -79 100 -36
45 -70 87 -76 94 -6 6 -47 58 -92 116 -44 58 -90 116 -102 129 -12 13 -21 26
-21 28 0 1 71 3 159 3 l158 0 17 -53z m703 45 c-5 -7 -177 -224 -201 -253 -8
-10 -38 -48 -67 -85 -30 -38 -56 -71 -59 -74 -3 -3 -32 -39 -65 -80 -32 -41
-66 -82 -73 -90 -13 -12 -14 -12 -9 5 10 33 63 231 102 380 20 77 41 155 46
173 l11 32 159 0 c88 0 158 -3 156 -8z"/>
<path d="M504 599 c7 -36 26 -55 38 -37 3 7 3 19 -2 27 -4 9 -8 21 -8 26 -1 6
-9 12 -18 14 -14 2 -16 -2 -10 -30z"/>
<path d="M418 1142 c-34 -7 -20 -32 17 -32 23 0 35 5 35 14 0 15 -25 24 -52
18z"/>
</g>
</svg>
