<?xml version="1.0" standalone="no"?>
<!DOCTYPE svg PUBLIC "-//W3C//DTD SVG 20010904//EN"
 "http://www.w3.org/TR/2001/REC-SVG-20010904/DTD/svg10.dtd">
<svg version="1.0" xmlns="http://www.w3.org/2000/svg"
 width="512.000000pt" height="512.000000pt" viewBox="0 0 512.000000 512.000000"
 preserveAspectRatio="xMidYMid meet">
<metadata>
Created by potrace 1.14, written by Peter Selinger 2001-2017
</metadata>
<g transform="translate(0.000000,512.000000) scale(0.100000,-0.100000)"
fill="#000000" stroke="none">
<path d="M0 2560 l0 -2560 2560 0 2560 0 0 2560 0 2560 -2560 0 -2560 0 0
-2560z m2942 1235 c85 -16 176 -46 305 -101 l92 -39 5 -60 c3 -33 8 -151 11
-263 l6 -203 -37 3 -38 3 -66 190 c-65 185 -67 190 -111 222 -69 52 -237 131
-314 149 -104 24 -300 15 -418 -20 -368 -109 -628 -437 -666 -840 -11 -115 -1
-287 24 -405 74 -354 298 -640 587 -751 126 -49 206 -63 353 -62 158 1 248 21
380 86 l90 45 90 213 c89 212 90 213 123 216 l32 3 -1 -58 c-2 -144 -25 -443
-35 -453 -21 -21 -200 -93 -289 -115 -251 -64 -606 -61 -815 7 -339 110 -603
391 -697 746 -24 87 -26 116 -27 287 -1 203 10 280 59 425 100 295 344 568
620 696 88 41 225 81 320 93 90 13 324 5 417 -14z"/>
</g>
</svg>
